<?xml version="1.0" standalone="no"?>
<!DOCTYPE svg PUBLIC "-//W3C//DTD SVG 20010904//EN"
 "http://www.w3.org/TR/2001/REC-SVG-20010904/DTD/svg10.dtd">
<svg version="1.0" xmlns="http://www.w3.org/2000/svg"
 width="500.000000pt" height="241.000000pt" viewBox="0 0 500.000000 241.000000"
 preserveAspectRatio="xMidYMid meet">

<g transform="translate(0.000000,241.000000) scale(0.100000,-0.100000)"
fill="#000000" stroke="none">
<path d="M1049 2324 c-198 -35 -374 -132 -484 -264 -21 -25 -54 -79 -74 -120
-34 -71 -36 -80 -36 -180 0 -95 3 -110 29 -163 72 -147 264 -292 458 -347 81
-23 241 -28 264 -9 29 24 14 32 -46 26 -109 -12 -292 43 -406 121 -75 50 -166
148 -202 215 -24 47 -27 62 -27 152 0 95 2 104 38 179 75 157 232 277 442 338
108 31 343 33 450 4 230 -62 371 -202 454 -451 71 -213 66 -446 -15 -703 -15
-47 -34 -87 -44 -92 -9 -5 -71 -23 -136 -40 -273 -71 -566 -166 -703 -226
-209 -93 -351 -182 -448 -279 -144 -147 -150 -266 -15 -332 104 -51 295 -43
477 19 211 72 428 211 604 387 121 120 176 194 251 334 28 53 56 99 60 102 5
3 29 9 54 14 l46 8 0 -41 c0 -53 17 -85 60 -114 69 -47 208 -16 325 74 47 36
49 35 59 -12 15 -67 81 -96 134 -58 21 14 24 14 53 -15 23 -24 40 -31 67 -31
74 0 113 42 132 140 12 62 15 67 32 52 7 -5 29 -13 50 -17 31 -6 37 -11 42
-40 13 -68 73 -115 149 -115 76 0 199 54 269 118 l26 24 16 -56 c9 -31 30 -71
46 -89 25 -29 34 -32 83 -32 74 0 103 22 147 113 30 62 39 71 62 72 l27 0 -6
-64 c-10 -113 16 -149 87 -119 46 19 74 46 95 94 l18 39 17 -27 c26 -43 44
-54 95 -55 33 0 55 6 76 21 l29 22 0 -49 c0 -46 -5 -55 -58 -119 -32 -38 -76
-99 -98 -134 -24 -40 -40 -58 -42 -48 -2 14 -15 17 -68 16 l-64 0 0 -39 c0
-24 5 -38 13 -38 7 0 12 13 12 32 0 23 5 34 18 36 14 3 17 -4 17 -32 0 -22 5
-36 13 -36 7 0 12 13 12 33 0 22 5 32 15 32 20 0 19 -51 -3 -130 -31 -108 -17
-197 38 -252 28 -28 40 -33 83 -33 122 0 168 113 178 435 3 99 10 196 16 215
7 24 41 64 107 127 53 51 91 92 85 93 -11 0 -84 -52 -161 -116 l-33 -27 0 121
c0 120 -3 133 -37 138 -20 3 -31 -18 -43 -86 -6 -35 -18 -76 -25 -91 -14 -26
-55 -59 -74 -59 -21 0 -34 47 -33 121 1 70 -1 77 -20 82 -44 12 -78 -35 -78
-108 0 -51 -83 -154 -115 -141 -13 5 -14 19 -9 92 8 99 3 108 -60 98 -39 -6
-39 -6 -31 22 15 55 12 69 -16 72 -31 4 -48 -15 -56 -62 -4 -27 -1 -42 11 -55
17 -18 16 -22 -17 -73 -48 -74 -79 -100 -113 -96 -38 4 -74 74 -81 156 -5 51
-1 70 32 152 76 189 118 393 119 570 1 129 -16 181 -66 209 -25 14 -29 14 -55
-5 -35 -26 -68 -106 -89 -220 -13 -68 -18 -160 -20 -393 l-3 -304 -58 -35
c-83 -51 -162 -81 -210 -82 -34 0 -46 5 -67 31 -45 54 -29 109 32 109 49 0
107 17 127 36 47 48 -28 89 -130 70 -40 -8 -102 -58 -116 -93 -9 -25 -37 -30
-69 -13 -10 5 -32 33 -49 60 -25 40 -36 51 -54 48 -20 -3 -22 -9 -28 -99 -5
-99 -30 -171 -60 -177 -22 -4 -47 47 -54 109 -11 96 -12 99 -44 99 -28 0 -30
-3 -41 -57 -15 -72 -38 -119 -51 -106 -6 6 -12 37 -15 69 -9 104 -13 122 -33
127 -28 7 -41 -12 -41 -58 0 -40 -2 -42 -62 -77 -142 -83 -224 -99 -267 -54
-26 28 -32 93 -9 107 7 5 30 9 51 9 41 0 107 24 119 43 25 39 -8 67 -78 67
-65 0 -113 -18 -141 -53 -15 -19 -33 -28 -72 -33 -28 -4 -51 -4 -51 0 0 4 15
60 32 124 32 114 33 121 32 317 0 236 -13 299 -94 460 -109 218 -270 332 -525
371 -112 17 -256 17 -356 -2z m2565 -607 c-2 -160 -30 -325 -83 -477 l-29 -85
-1 85 c-1 95 23 402 40 525 6 44 18 91 26 104 14 22 16 22 31 7 14 -14 17 -39
16 -159z m-1384 -626 c0 -11 -25 -21 -53 -21 -22 1 -22 1 -3 15 22 17 56 20
56 6z m960 0 c0 -11 -25 -21 -53 -21 -22 1 -22 1 -3 15 22 17 56 20 56 6z
m-1370 -136 c0 -14 -71 -144 -96 -176 -16 -20 -40 -51 -54 -69 -46 -63 -110
-131 -178 -191 -92 -82 -280 -208 -382 -257 -145 -69 -325 -114 -415 -105 -99
10 -175 68 -175 133 0 73 148 228 313 325 151 90 412 193 697 274 212 60 247
69 268 70 12 1 22 -1 22 -4z m2396 -377 c-15 -217 -49 -380 -85 -402 -17 -11
-47 11 -65 48 -43 91 7 284 111 424 40 54 46 43 39 -70z"/>
<path d="M2475 550 c0 -46 3 -60 15 -60 12 0 14 12 12 60 -5 82 -28 82 -27 0z"/>
<path d="M3584 582 c-6 -4 -9 -26 -6 -49 3 -36 8 -43 26 -43 15 0 17 3 8 9 -7
4 -12 23 -10 44 2 40 -2 50 -18 39z"/>
<path d="M2133 574 c-21 -9 -15 -34 12 -46 14 -6 25 -15 25 -20 0 -11 -7 -10
-32 3 -16 9 -19 8 -16 -3 3 -7 19 -14 36 -16 26 -3 32 0 32 16 0 11 -10 27
-22 36 l-23 17 24 -7 c17 -4 22 -2 19 7 -5 15 -35 21 -55 13z"/>
<path d="M2628 573 c-21 -5 -32 -36 -23 -64 5 -16 14 -19 38 -17 17 2 32 9 35
16 3 11 0 12 -16 3 -14 -7 -23 -8 -27 -1 -3 6 5 14 19 20 14 5 26 14 26 19 0
14 -32 28 -52 24z m26 -22 c3 -5 -3 -11 -14 -14 -20 -5 -26 3 -13 16 9 10 21
9 27 -2z"/>
<path d="M2787 574 c-14 -14 -7 -43 13 -49 11 -3 20 -11 20 -16 0 -12 -17 -12
-25 1 -10 16 -25 12 -19 -5 7 -18 60 -20 70 -3 4 6 -5 21 -22 36 -27 22 -27
24 -6 19 15 -4 22 -1 19 6 -4 14 -39 21 -50 11z"/>
<path d="M3073 573 c-21 -7 -15 -30 15 -52 18 -13 22 -20 12 -21 -9 0 -21 5
-28 12 -9 9 -12 8 -12 -5 0 -12 8 -17 29 -17 43 0 49 19 15 48 l-29 25 28 -7
c22 -5 28 -4 25 6 -5 13 -32 18 -55 11z"/>
<path d="M3227 573 c-3 -3 3 -19 14 -36 23 -39 25 -72 4 -63 -8 3 -15 1 -15
-4 0 -22 30 -8 45 20 16 32 20 54 5 30 -7 -12 -11 -8 -16 17 -6 30 -25 48 -37
36z"/>
<path d="M2313 564 c23 -7 22 -20 -4 -27 -13 -4 -20 -12 -17 -24 2 -13 14 -19
45 -21 l42 -3 -13 38 c-11 31 -18 38 -42 40 -16 1 -21 -1 -11 -3z m27 -49 c0
-8 -7 -15 -15 -15 -8 0 -15 7 -15 15 0 8 7 15 15 15 8 0 15 -7 15 -15z"/>
<path d="M3290 555 c0 -8 2 -15 4 -15 2 0 6 7 10 15 3 8 1 15 -4 15 -6 0 -10
-7 -10 -15z"/>
<path d="M3410 558 c0 -7 12 -23 28 -36 l27 -23 -27 4 c-16 2 -28 0 -28 -4 0
-5 14 -9 30 -9 38 0 41 32 4 48 -14 7 -22 17 -19 22 3 6 1 10 -4 10 -6 0 -11
-5 -11 -12z"/>
<path d="M3440 566 c0 -2 7 -6 15 -10 8 -3 15 -1 15 4 0 6 -7 10 -15 10 -8 0
-15 -2 -15 -4z"/>
<path d="M3732 558 c-25 -25 -6 -68 29 -68 10 0 20 4 23 8 3 5 -5 8 -17 8 -18
-1 -22 4 -22 32 0 17 0 32 0 32 -1 0 -6 -5 -13 -12z"/>
<path d="M3760 566 c0 -2 7 -9 15 -16 12 -10 15 -10 15 4 0 9 -7 16 -15 16 -8
0 -15 -2 -15 -4z"/>
</g>
</svg>
